<?xml version="1.0" encoding="UTF-8"?>
<svg version="1.1" xmlns="http://www.w3.org/2000/svg" width="400" height="400">
<path d="M0 0 C1.23391228 -0.01058945 1.23391228 -0.01058945 2.49275208 -0.02139282 C36.44592663 -0.24667095 36.44592663 -0.24667095 51.171875 3.203125 C52.06503418 3.40180176 52.95819336 3.60047852 53.87841797 3.80517578 C80.05158526 9.7223948 105.43787555 20.28134731 127.171875 36.203125 C128.73228516 37.33814453 128.73228516 37.33814453 130.32421875 38.49609375 C137.93010108 44.13609215 144.93699192 50.32606186 151.77490234 56.86914062 C152.96618746 58.00671173 154.17117264 59.12990724 155.37890625 60.25 C187.35060068 90.72403868 210.20998236 140.36129218 211.33300781 184.46582031 C211.35254956 185.98756911 211.36630412 187.50940058 211.375 189.03125 C211.38205963 189.85385818 211.38911926 190.67646637 211.39639282 191.52400208 C211.62167095 225.47717663 211.62167095 225.47717663 208.171875 240.203125 C207.87385986 241.54286377 207.87385986 241.54286377 207.56982422 242.90966797 C201.6526052 269.08283526 191.09365269 294.46912555 175.171875 316.203125 C174.41519531 317.24339844 173.65851563 318.28367187 172.87890625 319.35546875 C167.23890785 326.96135108 161.04893814 333.96824192 154.50585938 340.80615234 C153.36828827 341.99743746 152.24509276 343.20242264 151.125 344.41015625 C120.65096132 376.38185068 71.01370782 399.24123236 26.90917969 400.36425781 C25.38743089 400.38379956 23.86559942 400.39755412 22.34375 400.40625 C21.10983772 400.41683945 21.10983772 400.41683945 19.85099792 400.42764282 C-14.10217663 400.65292095 -14.10217663 400.65292095 -28.828125 397.203125 C-30.16786377 396.90510986 -30.16786377 396.90510986 -31.53466797 396.60107422 C-57.70783526 390.6838552 -83.09412555 380.12490269 -104.828125 364.203125 C-105.86839844 363.44644531 -106.90867187 362.68976563 -107.98046875 361.91015625 C-115.58635108 356.27015785 -122.59324192 350.08018814 -129.43115234 343.53710938 C-130.62243746 342.39953827 -131.82742264 341.27634276 -133.03515625 340.15625 C-165.00685068 309.68221132 -187.86623236 260.04495782 -188.98925781 215.94042969 C-189.00879956 214.41868089 -189.02255412 212.89684942 -189.03125 211.375 C-189.03830963 210.55239182 -189.04536926 209.72978363 -189.05264282 208.88224792 C-189.27792095 174.92907337 -189.27792095 174.92907337 -185.828125 160.203125 C-185.62944824 159.30996582 -185.43077148 158.41680664 -185.22607422 157.49658203 C-179.3088552 131.32341474 -168.74990269 105.93712445 -152.828125 84.203125 C-152.07144531 83.16285156 -151.31476563 82.12257813 -150.53515625 81.05078125 C-144.89515785 73.44489892 -138.70518814 66.43800808 -132.16210938 59.60009766 C-131.02453827 58.40881254 -129.90134276 57.20382736 -128.78125 55.99609375 C-97.01652998 22.67028706 -45.85508406 0.26201706 0 0 Z " fill="#FD0101" transform="translate(188.828125,-0.203125)"/>
<path d="M0 0 C1.44232092 0.4733702 2.88401408 0.94865344 4.32543945 1.42474365 C5.12834915 1.68921169 5.93125885 1.95367973 6.75849915 2.22616196 C9.33268891 3.11485489 11.7478816 4.18176025 14.1875 5.390625 C15.11602783 5.84493896 16.04455566 6.29925293 17.0012207 6.76733398 C18.48561646 7.50125366 18.48561646 7.50125366 20 8.25 C30.03550032 13.14029242 40.14035086 17.84034008 50.3125 22.4375 C53.10567415 23.7013694 55.89859979 24.96578708 58.69140625 26.23046875 C59.38019867 26.54233124 60.06899109 26.85419373 60.77865601 27.17550659 C67.50352376 30.22303123 74.21456922 33.30003549 80.91488647 36.40115356 C82.70315978 37.22833368 84.49279778 38.05256145 86.2824707 38.87670898 C87.35972412 39.37630127 88.43697754 39.87589355 89.546875 40.390625 C90.48370117 40.82407227 91.42052734 41.25751953 92.38574219 41.70410156 C93.24844727 42.13174805 94.11115234 42.55939453 95 43 C95.86721176 43.28939957 96.73442352 43.57879913 97.62791443 43.87696838 C100.49853235 46.44618961 100.39407965 47.14808365 100.60127258 50.87846375 C100.61582462 53.0070904 100.60234789 55.13601109 100.56762695 57.2644043 C100.56835709 58.42551727 100.56908722 59.58663025 100.56983948 60.78292847 C100.56634903 64.63049629 100.52741586 68.47686175 100.48828125 72.32421875 C100.4789583 74.98796134 100.47159393 77.65163686 100.46684265 80.31538391 C100.45129665 86.61599266 100.41025862 92.91616808 100.3600952 99.21658593 C100.30422472 106.38937189 100.27672113 113.56217845 100.25161803 120.73512781 C100.19934298 135.49030692 100.11138641 150.24514592 100 165 C98.41196387 164.53607981 96.82490174 164.06882478 95.23825073 163.60018921 C94.35435102 163.34034933 93.47045132 163.08050945 92.55976677 162.81279564 C89.078652 161.70744692 85.84971374 160.25822235 82.5703125 158.6640625 C81.57362801 158.19070213 81.57362801 158.19070213 80.55680847 157.70777893 C78.4097656 156.68655959 76.26746674 155.65577991 74.125 154.625 C72.61391659 153.90453376 71.1024359 153.18490022 69.59057617 152.46606445 C67.28717701 151.37087495 64.98397982 150.27529177 62.68199158 149.17713928 C55.58384834 145.79228003 48.45148564 142.48523976 41.3125 139.1875 C39.05703873 138.13856453 36.80182564 137.08909524 34.546875 136.0390625 C30.14977392 133.99240705 25.74226263 131.97055225 21.328125 129.9609375 C19.2393081 128.99538686 17.15075347 128.02926859 15.0625 127.0625 C14.11479736 126.63799561 13.16709473 126.21349121 12.19067383 125.77612305 C10.87619263 125.16184448 10.87619263 125.16184448 9.53515625 124.53515625 C8.39639038 124.01514038 8.39639038 124.01514038 7.23461914 123.48461914 C4.11203911 121.41006335 1.78370263 119.29054778 0 116 C-0.71235791 112.22020768 -0.6324953 108.50669121 -0.56762695 104.67041016 C-0.56835709 103.53811981 -0.56908722 102.40582947 -0.56983948 101.23922729 C-0.56636257 97.50534781 -0.52749325 93.77272345 -0.48828125 90.0390625 C-0.47895358 87.44689617 -0.47183725 84.85472102 -0.46684265 82.26254272 C-0.4497179 76.14262659 -0.41033246 70.02322664 -0.3600952 63.90350473 C-0.30412739 56.93379151 -0.27669668 49.96405639 -0.25161803 42.99417424 C-0.19941369 28.66254223 -0.11151807 14.33128707 0 0 Z " fill="#010200" transform="translate(97,147)"/>
<path d="M0 0 C0.886875 0.44085938 1.77375 0.88171875 2.6875 1.3359375 C11.57639144 4.79505799 20.76576167 4.89350627 30.1875 4.75 C31.33025391 4.74097656 32.47300781 4.73195312 33.65039062 4.72265625 C36.4338231 4.69936393 39.21679229 4.66665999 42 4.625 C42.20865464 15.60363033 42.3685062 26.58178815 42.46630955 37.56199837 C42.51325484 42.66086037 42.57690971 47.75836476 42.67895508 52.85644531 C42.77684607 57.77785414 42.83057766 62.69795864 42.85389519 67.62026596 C42.87050795 69.49670832 42.90295186 71.37308026 42.95157051 73.24896622 C43.31561927 87.87900926 43.31561927 87.87900926 40.20346069 92.00923157 C37.85320989 93.6335851 35.67652978 94.64288173 33 95.625 C31.72695669 96.28241051 30.45891497 96.94964166 29.19726562 97.62866211 C27.93708215 98.22728874 26.67326929 98.81832462 25.40625 99.40234375 C24.36081779 99.89470016 24.36081779 99.89470016 23.29426575 100.39700317 C21.03284831 101.45947187 18.76663419 102.51121271 16.5 103.5625 C14.90629058 104.30807741 13.31278795 105.05409698 11.71948242 105.80053711 C-0.4239488 111.47732492 -12.61744828 117.04544327 -24.83496094 122.56079102 C-32.66824824 126.09788522 -40.48336056 129.66618709 -48.19799805 133.45727539 C-51.46761983 135.03591737 -54.43844211 135.98120888 -58 136.625 C-58.23374792 121.21335867 -58.41001326 105.80185012 -58.51812172 90.38885307 C-58.56965693 83.23193943 -58.63989327 76.07612795 -58.75439453 68.91992188 C-58.85416449 62.68142463 -58.91860334 56.4437255 -58.94088495 50.20445263 C-58.95390921 46.90106268 -58.98969724 43.60048433 -59.05730057 40.29769516 C-59.12984248 36.60707664 -59.13989439 32.92119639 -59.13525391 29.22998047 C-59.17120667 28.13881424 -59.20715942 27.04764801 -59.24420166 25.92341614 C-59.2023589 22.85054857 -59.0655018 20.51028225 -58 17.625 C-54.98347687 14.84055247 -51.74524117 13.24239614 -48 11.625 C-46.34503798 10.83206068 -44.69008795 10.03909635 -43.03515625 9.24609375 C-41.38073484 8.51114098 -39.72311627 7.78334629 -38.0625 7.0625 C-36.30435321 6.29242944 -34.54653758 5.52160233 -32.7890625 4.75 C-31.95922852 4.38648438 -31.12939453 4.02296875 -30.27441406 3.6484375 C-27.44843978 2.37680974 -24.70082523 0.9640713 -21.9375 -0.4375 C-14.19867947 -3.89706619 -7.67982431 -3.32957544 0 0 Z " fill="#030101" transform="translate(265,175.375)"/>
<path d="M0 0 C1.00095703 0.46019531 2.00191406 0.92039062 3.03320312 1.39453125 C10.3798396 4.8173396 10.3798396 4.8173396 12.6875 7.125 C12.97460938 9.10522461 12.97460938 9.10522461 13.03125 11.52734375 C13.05920654 12.41212402 13.08716309 13.2969043 13.1159668 14.20849609 C13.13957275 15.15031738 13.16317871 16.09213867 13.1875 17.0625 C13.8098523 33.14645939 16.06524312 49.02206106 27.46484375 61.29296875 C28.6875 63.125 28.6875 63.125 28.78125 65.16015625 C27.08831907 68.20138574 24.32652516 69.07439636 21.25 70.375 C20.59201416 70.66802002 19.93402832 70.96104004 19.25610352 71.26293945 C17.07281376 72.23190327 14.88098832 73.17936907 12.6875 74.125 C10.28644728 75.1705879 7.88710553 76.21982913 5.48999023 77.27441406 C3.94820917 77.95116157 2.4035555 78.6214133 0.85571289 79.28417969 C-2.57122426 80.77713331 -5.29563728 82.11191417 -8.27734375 84.42578125 C-12.53153419 86.80747088 -15.64245933 86.10543698 -20.3125 85.125 C-23.21100102 84.1314669 -25.90394683 82.84077127 -28.640625 81.46875 C-29.41565369 81.09437805 -30.19068237 80.7200061 -30.98919678 80.33428955 C-32.6536766 79.52862433 -34.31525537 78.71694247 -35.97412109 77.89978027 C-39.50365577 76.16147945 -43.04735956 74.45304506 -46.59069824 72.74310303 C-48.42382493 71.8583384 -50.25625806 70.97213544 -52.0880127 70.08453369 C-61.44011629 65.55854217 -70.86652214 61.20082459 -80.3125 56.875 C-81.80113045 56.19080672 -83.28973785 55.5065633 -84.77832031 54.82226562 C-94.2428289 50.48084096 -103.75966144 46.26820623 -113.3125 42.125 C-113.3125 40.805 -113.3125 39.485 -113.3125 38.125 C-78.17638387 21.65856934 -78.17638387 21.65856934 -61.16455078 14.2121582 C-53.42983195 10.79283039 -45.83677003 7.07362411 -38.25170898 3.3359375 C-23.71469854 -3.75037178 -15.09748756 -7.19683255 0 0 Z " fill="#020101" transform="translate(217.3125,98.875)"/>
<path d="M0 0 C9.92602956 0.19323213 9.92602956 0.19323213 14.3125 3.3125 C15.82823612 5.86810159 16.59124257 8.4427081 17.3125 11.3125 C17.61800781 12.45138672 17.61800781 12.45138672 17.9296875 13.61328125 C18.42039979 15.50554849 18.8704483 17.40827728 19.3125 19.3125 C20.19292969 19.33828125 21.07335937 19.3640625 21.98046875 19.390625 C23.14191406 19.44734375 24.30335938 19.5040625 25.5 19.5625 C27.22283203 19.63210937 27.22283203 19.63210937 28.98046875 19.703125 C32.85741363 20.41215595 34.52491177 21.57469013 37.3125 24.3125 C40.37912069 29.59977706 41.86733555 35.25531856 40.3125 41.3125 C38.40829758 43.58177827 36.32943939 45.42262931 34.10546875 47.375 C32.09177145 49.55102148 31.69696334 50.51468132 31.625 53.4375 C32.11450422 57.29243247 32.11450422 57.29243247 33.875 60.375 C35.80007996 64.30885904 35.54037938 66.12326447 34.3125 70.3125 C32.53767384 73.18400979 30.53230043 75.77242986 28.3125 78.3125 C27.88155029 78.84504395 27.45060059 79.37758789 27.0065918 79.92626953 C24.72788988 81.79087099 23.53337744 81.54507389 20.63671875 81.2890625 C19.72841309 81.23290771 18.82010742 81.17675293 17.88427734 81.11889648 C16.45656006 81.02910522 16.45656006 81.02910522 15 80.9375 C7.90763478 80.46696681 7.90763478 80.46696681 1.69921875 83.26953125 C0.13527468 85.68417696 0.13527468 85.68417696 -0.8203125 88.24609375 C-1.24957031 89.26896484 -1.24957031 89.26896484 -1.6875 90.3125 C-7.68016116 92.31005372 -13.58912683 91.43531817 -19.515625 89.55859375 C-22.23072952 88.00082695 -22.72763585 86.8807569 -23.6875 83.9375 C-24.04890062 82.40217046 -24.38498419 80.86050885 -24.6875 79.3125 C-26.00689433 75.26635738 -27.04998225 73.55286627 -30.6875 71.3125 C-33.59112169 70.70838792 -33.59112169 70.70838792 -36.6875 70.4375 C-42.35663928 69.5960949 -42.35663928 69.5960949 -45.3125 67.0625 C-48.30170741 61.08408518 -50.18842238 55.01146976 -48.6875 48.3125 C-47.15625 46.72265625 -47.15625 46.72265625 -45.25 45.375 C-42.66768698 43.54695285 -41.81091967 42.72774942 -40.89453125 39.64453125 C-40.11136035 34.1244509 -40.11136035 34.1244509 -42.15625 29.17578125 C-42.6615625 28.56089844 -43.166875 27.94601563 -43.6875 27.3125 C-44.42821916 23.5348323 -44.27613558 21.27908465 -42.2578125 17.96484375 C-36.68011124 10.6037144 -36.68011124 10.6037144 -32.6875 8.3125 C-30.390625 8.45703125 -30.390625 8.45703125 -27.9375 9.125 C-22.33052928 10.46669757 -17.27785392 11.17595131 -11.6875 9.3125 C-10.63702356 7.00145182 -9.63742562 4.66666349 -8.6875 2.3125 C-5.86253283 -0.51246717 -3.93951123 0.01255955 0 0 Z " fill="#060001" transform="translate(292.6875,76.6875)"/>
<path d="M0 0 C4.39370512 2.75683459 7.72567051 5.35872734 10.1875 10 C11.473092 16.88834093 10.87708263 23.8860091 7.55859375 30.12109375 C4.97912571 33.65592032 2.35150006 35.62515638 -1.8125 37 C-7.88974153 37.91803524 -13.79877675 38.05954275 -19.3125 35.0625 C-24.22492211 31.35736807 -27.20786686 26.50473192 -28.25390625 20.44140625 C-28.52059563 14.78931194 -27.455898 10.43004075 -23.8125 6 C-23.27625 5.34515625 -22.74 4.6903125 -22.1875 4.015625 C-15.68862485 -2.75403662 -8.65452414 -2.27003912 0 0 Z " fill="#EA090C" transform="translate(296.8125,104)"/>
<path d="M0 0 C3.0625 2.4375 3.0625 2.4375 5 5 C5.33 5.33 5.66 5.66 6 6 C6.85359801 16.71960298 6.85359801 16.71960298 4 21 C-0.34255531 23.92870009 -3.81829205 24.56527723 -9 24 C-13.09613637 22.19007928 -15.73195328 19.8640796 -18 16 C-18.81714404 12.77984719 -18.88621107 10.21114754 -18 7 C-13.6397233 0.5538612 -7.56822502 -1.91156199 0 0 Z " fill="#060001" transform="translate(294,110)"/>
</svg>
